<?xml version="1.0"?>
<svg xmlns="http://www.w3.org/2000/svg" xmlns:xlink="http://www.w3.org/1999/xlink" version="1.1" viewBox="0 0 192 192" width="24px" height="24px"><g fill="none" fill-rule="nonzero" stroke="none" stroke-width="1" stroke-linecap="butt" stroke-linejoin="miter" stroke-miterlimit="10" stroke-dasharray="" stroke-dashoffset="0" font-family="none" font-weight="none" font-size="none" text-anchor="none" style="mix-blend-mode: normal"><path d="M0,192v-192h192v192z" fill="none"/><g fill="#ffffff"><path d="M64,24c-22.088,0 -40,17.912 -40,40v64c0,22.088 17.912,40 40,40h64c22.088,0 40,-17.912 40,-40v-64c0,-22.088 -17.912,-40 -40,-40zM144,40c4.416,0 8,3.584 8,8c0,4.416 -3.584,8 -8,8c-4.416,0 -8,-3.584 -8,-8c0,-4.416 3.584,-8 8,-8zM96,56c22.088,0 40,17.912 40,40c0,22.088 -17.912,40 -40,40c-22.088,0 -40,-17.912 -40,-40c0,-22.088 17.912,-40 40,-40zM96,72c-13.25483,0 -24,10.74517 -24,24c0,13.25483 10.74517,24 24,24c13.25483,0 24,-10.74517 24,-24c0,-13.25483 -10.74517,-24 -24,-24z"/></g></g></svg>
