<?xml version="1.0"?>
<svg xmlns="http://www.w3.org/2000/svg" xmlns:xlink="http://www.w3.org/1999/xlink" version="1.1" viewBox="0 0 192 192" width="24px" height="24px"><g fill="none" fill-rule="nonzero" stroke="none" stroke-width="1" stroke-linecap="butt" stroke-linejoin="miter" stroke-miterlimit="10" stroke-dasharray="" stroke-dashoffset="0" font-family="none" font-weight="none" font-size="none" text-anchor="none" style="mix-blend-mode: normal"><path d="M0,192v-192h192v192z" fill="none"/><g fill="#ffffff"><path d="M96,16c-44.184,0 -80,35.816 -80,80c0,44.184 35.816,80 80,80c44.184,0 80,-35.816 80,-80c0,-44.184 -35.816,-80 -80,-80zM80,128c-17.672,0 -32,-14.328 -32,-32c0,-17.672 14.328,-32 32,-32c8.336,0 15.856,3.264 21.552,8.488l-8.744,8.272c-3.472,-2.928 -7.904,-4.76 -12.808,-4.76c-11.048,0 -20,8.952 -20,20c0,11.048 8.952,20 20,20c9.672,0 17.744,-6.872 19.6,-16h-19.6v-12h30.872c0.664,2.568 1.128,5.224 1.128,8c0,17.672 -14.328,32 -32,32zM144,96v12h-8v-12h-12v-8h12v-12h8v12h12v8z"/></g></g></svg>
