<?xml version="1.0"?>
<svg xmlns="http://www.w3.org/2000/svg" xmlns:xlink="http://www.w3.org/1999/xlink" version="1.1" viewBox="0 0 192 192" width="24px" height="24px"><g fill="none" fill-rule="nonzero" stroke="none" stroke-width="1" stroke-linecap="butt" stroke-linejoin="miter" stroke-miterlimit="10" stroke-dasharray="" stroke-dashoffset="0" font-family="none" font-weight="none" font-size="none" text-anchor="none" style="mix-blend-mode: normal"><path d="M0,192v-192h192v192z" fill="none"/><g fill="#ffffff"><path d="M152,24h-112c-8.84,0 -16,7.16 -16,16v112c0,8.84 7.16,16 16,16h112c8.84,0 16,-7.16 16,-16v-112c0,-8.84 -7.16,-16 -16,-16zM136.4,76.112c0,0.688 0,1.368 0,2.744c0,26.056 -19.888,56.232 -56.232,56.232c-10.968,0 -21.256,-3.432 -30.168,-8.912c1.368,0 3.432,0 4.8,0c8.912,0 17.832,-3.432 24.688,-8.232c-8.912,0 -15.768,-6.168 -18.512,-13.712c1.368,0 2.744,0.688 3.432,0.688c2.056,0 3.432,0 5.488,-0.688c-8.912,-2.056 -15.768,-9.6 -15.768,-19.2c2.744,1.368 5.488,2.056 8.912,2.744c-5.488,-4.8 -8.912,-10.288 -8.912,-17.144c0,-3.432 0.688,-6.856 2.744,-9.6c9.6,11.656 24,19.888 40.456,20.568c0,-1.368 -0.688,-2.744 -0.688,-4.8c0,-10.968 8.912,-19.888 19.888,-19.888c5.488,0 10.968,2.056 14.4,6.168c4.8,-0.688 8.912,-2.744 12.344,-4.8c-1.368,4.8 -4.8,8.232 -8.912,10.968c4.112,-0.688 7.544,-1.368 11.656,-3.432c-2.76,4.128 -6.184,7.552 -9.616,10.296z"/></g></g></svg>
