<?xml version="1.0"?>
<svg xmlns="http://www.w3.org/2000/svg" xmlns:xlink="http://www.w3.org/1999/xlink" version="1.1" viewBox="0 0 192 192" width="24px" height="24px"><g fill="none" fill-rule="nonzero" stroke="none" stroke-width="1" stroke-linecap="butt" stroke-linejoin="miter" stroke-miterlimit="10" stroke-dasharray="" stroke-dashoffset="0" font-family="none" font-weight="none" font-size="none" text-anchor="none" style="mix-blend-mode: normal"><path d="M0,192v-192h192v192z" fill="none"/><g fill="#ffffff"><path d="M152,24h-112c-8.84,0 -16,7.16 -16,16v112c0,8.84 7.16,16 16,16h60.968v-55.688h-18.744v-21.8h18.744v-16.04c0,-18.592 11.368,-28.728 27.96,-28.728c5.592,-0.016 11.176,0.272 16.736,0.84v19.44h-11.424c-9.04,0 -10.8,4.272 -10.8,10.576v13.88h21.6l-2.808,21.8h-18.92v55.72h28.688c8.84,0 16,-7.16 16,-16v-112c0,-8.84 -7.16,-16 -16,-16z"/></g></g></svg>
