<svg id="Layer_1" data-name="Layer 1" xmlns="http://www.w3.org/2000/svg" xmlns:xlink="http://www.w3.org/1999/xlink" viewBox="0 0 955.8 299.57"><defs><style>.cls-1{fill:url(#linear-gradient);}.cls-2{fill:url(#linear-gradient-2);}.cls-3{fill:url(#linear-gradient-3);}.cls-4{fill:url(#linear-gradient-4);}.cls-5{fill:url(#linear-gradient-5);}.cls-6{fill:url(#linear-gradient-6);}.cls-7{fill:url(#linear-gradient-7);}.cls-12,.cls-8{fill:#22345a;}.cls-9{fill:url(#linear-gradient-8);}.cls-10{fill:#192944;opacity:0.17;}.cls-11{fill:#fff;}.cls-12{opacity:0.15;}</style><linearGradient id="linear-gradient" x1="232.47" y1="219.33" x2="799.09" y2="258.81" gradientUnits="userSpaceOnUse"><stop offset="0" stop-color="#fc4c88"/><stop offset="1" stop-color="#9d07ff"/></linearGradient><linearGradient id="linear-gradient-2" x1="232.87" y1="213.65" x2="799.48" y2="253.13" xlink:href="#linear-gradient"/><linearGradient id="linear-gradient-3" x1="233.17" y1="209.41" x2="799.78" y2="248.9" xlink:href="#linear-gradient"/><linearGradient id="linear-gradient-4" x1="233.68" y1="202.08" x2="800.29" y2="241.56" xlink:href="#linear-gradient"/><linearGradient id="linear-gradient-5" x1="234.12" y1="195.74" x2="800.73" y2="235.22" xlink:href="#linear-gradient"/><linearGradient id="linear-gradient-6" x1="234.48" y1="190.54" x2="801.09" y2="230.02" xlink:href="#linear-gradient"/><linearGradient id="linear-gradient-7" x1="235.03" y1="182.58" x2="801.65" y2="222.06" xlink:href="#linear-gradient"/><linearGradient id="linear-gradient-8" x1="62.1" y1="270" x2="319.1" y2="270" xlink:href="#linear-gradient"/></defs><title>4</title><path class="cls-1" d="M363.08,277.47V183a10.13,10.13,0,0,1,10.38-10.37h28.49c23.55,0,35.4,12.19,35.4,31.45,0,10.38-5.6,19.27-14.16,23.05v.66c11,4.61,17.29,13.34,17.29,26.84,0,20.25-11.53,33.26-38.86,33.26H373.45A10.13,10.13,0,0,1,363.08,277.47Zm38.2-57.14c10.38,0,15.15-5.43,15.15-14.82,0-9.05-4.77-14.82-15.15-14.82H383.66v29.64Zm-1.65,49.4c13.17,0,19.76-3.62,19.76-16,0-12.19-6.75-16.14-18.61-16.14H383.66v32.11Z" transform="translate(-62.1 -120.21)"/><path class="cls-2" d="M460.22,278.79V181.64a10.37,10.37,0,0,1,20.75,0v97.15a10.37,10.37,0,0,1-20.75,0Z" transform="translate(-62.1 -120.21)"/><path class="cls-3" d="M507,277.47V183a10.13,10.13,0,0,1,10.38-10.37h26.84c28.16,0,46.44,18.61,46.44,57.3,0,35.4-18.28,58-42.81,58H517.36A10.13,10.13,0,0,1,507,277.47Zm35.9-7.74c21.73,0,26.68-19.1,26.68-39.85,0-18.61-4.94-39.19-26.68-39.19H527.56v79Z" transform="translate(-62.1 -120.21)"/><path class="cls-4" d="M611.86,277.47V183a10.13,10.13,0,0,1,10.38-10.37h28.49c23.55,0,35.4,12.19,35.4,31.45,0,10.38-5.6,19.27-14.16,23.05v.66c11,4.61,17.29,13.34,17.29,26.84,0,20.25-11.53,33.26-38.86,33.26H622.24A10.13,10.13,0,0,1,611.86,277.47Zm38.2-57.14c10.38,0,15.15-5.43,15.15-14.82,0-9.05-4.77-14.82-15.15-14.82H632.44v29.64Zm-1.65,49.4c13.17,0,19.76-3.62,19.76-16,0-12.19-6.75-16.14-18.61-16.14H632.44v32.11Z" transform="translate(-62.1 -120.21)"/><path class="cls-5" d="M709,277.47V181.64a10.37,10.37,0,1,1,20.75,0v88.09H766a9.06,9.06,0,1,1,0,18.11h-46.6A10.13,10.13,0,0,1,709,277.47Z" transform="translate(-62.1 -120.21)"/><path class="cls-6" d="M783.76,279.12a12.36,12.36,0,0,1,.82-4.28l33.26-95.34a9.41,9.41,0,0,1,9.55-6.92h5.27a9.41,9.41,0,0,1,9.55,6.92l33.26,95.34a12.36,12.36,0,0,1,.82,4.28,10,10,0,0,1-19.59,3.13l-6.42-19.93H809.77l-6.42,19.93a10,10,0,0,1-19.59-3.13ZM844.19,244l-13.83-42.32h-.66L815.87,244Z" transform="translate(-62.1 -120.21)"/><path class="cls-7" d="M893.08,277.47V183a10.13,10.13,0,0,1,10.37-10.37h28.49c23.55,0,35.4,12.19,35.4,31.45,0,10.38-5.6,19.27-14.16,23.05v.66c11,4.61,17.29,13.34,17.29,26.84,0,20.25-11.53,33.26-38.86,33.26H903.45A10.13,10.13,0,0,1,893.08,277.47Zm38.2-57.14c10.37,0,15.15-5.43,15.15-14.82,0-9.05-4.78-14.82-15.15-14.82H913.66v29.64Zm-1.65,49.4c13.17,0,19.76-3.62,19.76-16,0-12.19-6.75-16.14-18.61-16.14H913.66v32.11Z" transform="translate(-62.1 -120.21)"/><path class="cls-8" d="M362.94,351.62V320.69a2.14,2.14,0,0,1,2.11-2.16h8.35c6.64,0,10.16,3.37,10.16,9.3,0,3.17-1.86,6.34-4.58,7.39,3.67.86,5.88,3.82,5.88,8.5,0,5.58-3,10-11,10H365A2.12,2.12,0,0,1,362.94,351.62Zm10.46-17.8c3.87,0,5.78-2.16,5.78-5.73s-1.61-5.63-5.78-5.63h-6.19v11.37Zm-.2,16c4.88,0,7.29-1.36,7.29-6s-2.56-6.14-6.94-6.14h-6.34v12.17Z" transform="translate(-62.1 -120.21)"/><path class="cls-8" d="M401.56,351.62V320.69a2.17,2.17,0,0,1,2.26-2.16H418a2,2,0,0,1,0,3.92H405.83v11.37h11a2,2,0,0,1,0,3.92h-11v12.07H418a2,2,0,0,1,0,3.92H403.67A2.12,2.12,0,0,1,401.56,351.62Z" transform="translate(-62.1 -120.21)"/><path class="cls-8" d="M435.65,342V330.25c0-7.34,3.82-12.12,11.67-12.12,4.07,0,7.59,1.46,9.71,5.43a2.05,2.05,0,0,1,.25.91,2,2,0,0,1-2,2,1.89,1.89,0,0,1-1.66-.85,6.7,6.7,0,0,0-6.29-3.42c-5.38,0-7.39,3.12-7.39,8.55v10.76c0,5.43,2,8.55,7.39,8.55a7.34,7.34,0,0,0,6.24-3.37,2.12,2.12,0,0,1,1.81-1.16,2,2,0,0,1,2,2,2.16,2.16,0,0,1-.35,1.11,10.51,10.51,0,0,1-9.71,5.48C439.48,354.14,435.65,349.36,435.65,342Z" transform="translate(-62.1 -120.21)"/><path class="cls-8" d="M470.66,352a3.25,3.25,0,0,1,.2-1L481,320.19a2.05,2.05,0,0,1,2.06-1.66h.91a2.06,2.06,0,0,1,2.06,1.66l10.11,30.93a2.94,2.94,0,0,1,.2.91,2.1,2.1,0,0,1-2.16,2.11,2.2,2.2,0,0,1-2.06-1.61L489.72,345H477.24l-2.36,7.54a2.22,2.22,0,0,1-2.11,1.61A2.09,2.09,0,0,1,470.66,352Zm18-11-5.08-16.24h-.2L478.3,341Z" transform="translate(-62.1 -120.21)"/><path class="cls-8" d="M511.69,342.67V320.19a2.08,2.08,0,0,1,2.11-2.06,2.15,2.15,0,0,1,2.16,2.16v21.88c0,4.73,1.51,7.9,7.19,7.9s7.19-3.17,7.19-7.9v-22a2.08,2.08,0,0,1,2.11-2.06,2.15,2.15,0,0,1,2.16,2.16v22.38c0,7.34-3.87,11.47-11.47,11.47S511.69,350,511.69,342.67Z" transform="translate(-62.1 -120.21)"/><path class="cls-8" d="M552.33,351.67a2.11,2.11,0,0,1-1.06-1.81,2,2,0,0,1,3.12-1.66,14.71,14.71,0,0,0,7.24,1.86c5.23,0,6.94-2.67,6.94-6,0-10.76-16.85-4-16.85-16.5,0-6,3.57-9.4,10.16-9.4a15.07,15.07,0,0,1,8.3,2.36,2.21,2.21,0,0,1,1.06,1.71,1.91,1.91,0,0,1-2,1.86,2.62,2.62,0,0,1-1.26-.4,13.83,13.83,0,0,0-6.14-1.56c-4.93,0-6,2.57-6,5.38,0,8,16.85,2.77,16.85,16.19,0,5.73-3.12,10.46-11.12,10.46A17.81,17.81,0,0,1,552.33,351.67Z" transform="translate(-62.1 -120.21)"/><path class="cls-8" d="M589.64,351.62V320.69a2.17,2.17,0,0,1,2.26-2.16H606a2,2,0,0,1,0,3.92H593.92v11.37h11a2,2,0,0,1,0,3.92h-11v12.07H606a2,2,0,0,1,0,3.92H591.75A2.12,2.12,0,0,1,589.64,351.62Z" transform="translate(-62.1 -120.21)"/><path class="cls-8" d="M622.38,360.12a1.41,1.41,0,0,1,0-.45l2.11-10.21a2.24,2.24,0,0,1,2.26-1.76,2.28,2.28,0,0,1,2.31,2.31,3,3,0,0,1-.2,1l-2.82,9.55a2,2,0,0,1-1.86,1.46A1.89,1.89,0,0,1,622.38,360.12Z" transform="translate(-62.1 -120.21)"/><path class="cls-8" d="M653,352V340.66l-9.3-19.51a2,2,0,0,1-.2-.91,2.12,2.12,0,0,1,2.11-2.11,2.26,2.26,0,0,1,2.06,1.41l7.34,16.6h.25l7.39-16.7a2.22,2.22,0,0,1,2.06-1.31,2.19,2.19,0,0,1,2.16,2.21,2.4,2.4,0,0,1-.2.91l-9.4,19.41V352a2.1,2.1,0,0,1-2.11,2.16A2.15,2.15,0,0,1,653,352Z" transform="translate(-62.1 -120.21)"/><path class="cls-8" d="M681.22,342V330.25c0-7.34,3.82-12.12,11.67-12.12s11.67,4.78,11.67,12.12V342c0,7.34-3.82,12.12-11.67,12.12S681.22,349.36,681.22,342Zm19.06-.5V330.75c0-5.43-2-8.55-7.39-8.55s-7.39,3.12-7.39,8.55v10.76c0,5.43,2,8.55,7.39,8.55S700.28,346.95,700.28,341.51Z" transform="translate(-62.1 -120.21)"/><path class="cls-8" d="M722.3,342.67V320.19a2.08,2.08,0,0,1,2.11-2.06,2.15,2.15,0,0,1,2.16,2.16v21.88c0,4.73,1.51,7.9,7.19,7.9s7.19-3.17,7.19-7.9v-22a2.08,2.08,0,0,1,2.11-2.06,2.15,2.15,0,0,1,2.16,2.16v22.38c0,7.34-3.87,11.47-11.47,11.47S722.3,350,722.3,342.67Z" transform="translate(-62.1 -120.21)"/><path class="cls-8" d="M791.86,352l-7.34-30.78a3.38,3.38,0,0,1-.15-.91,2.18,2.18,0,0,1,4.33-.4l6.24,28.37h.2l5.73-27.81a2.22,2.22,0,0,1,2.16-2h.7a2.22,2.22,0,0,1,2.16,2l5.73,27.81h.2l6.24-28.37a2.18,2.18,0,0,1,4.33.4,3.38,3.38,0,0,1-.15.91L814.89,352a2.21,2.21,0,0,1-2.16,1.71H811a2.18,2.18,0,0,1-2.21-1.71l-5.28-24.44h-.2L798,352a2.18,2.18,0,0,1-2.21,1.71H794A2.21,2.21,0,0,1,791.86,352Z" transform="translate(-62.1 -120.21)"/><path class="cls-8" d="M837.62,342V330.25c0-7.34,3.82-12.12,11.67-12.12S861,322.91,861,330.25V342c0,7.34-3.82,12.12-11.67,12.12S837.62,349.36,837.62,342Zm19.06-.5V330.75c0-5.43-2-8.55-7.39-8.55s-7.39,3.12-7.39,8.55v10.76c0,5.43,2,8.55,7.39,8.55S856.68,346.95,856.68,341.51Z" transform="translate(-62.1 -120.21)"/><path class="cls-8" d="M878.71,352.18V320.09a1.92,1.92,0,0,1,1.91-2,2,2,0,0,1,1.76,1.11l16.14,25.85h.25v-25a2,2,0,0,1,3.92,0v32a2.13,2.13,0,0,1-2.21,2,2.16,2.16,0,0,1-1.91-1.06l-15.69-25.45h-.25v24.54a2,2,0,0,1-3.92,0Z" transform="translate(-62.1 -120.21)"/><path class="cls-8" d="M944.33,352V320.29a2.14,2.14,0,1,1,4.28,0V352a2.17,2.17,0,0,1-2.16,2.11A2.13,2.13,0,0,1,944.33,352Z" transform="translate(-62.1 -120.21)"/><path class="cls-8" d="M974.66,351.87V322.45h-7.85a1.9,1.9,0,0,1-2-2,1.93,1.93,0,0,1,2-2h19.92a1.85,1.85,0,0,1,2,2,1.9,1.9,0,0,1-2,2h-7.8V352a2.14,2.14,0,0,1-2.16,2.11A2.16,2.16,0,0,1,974.66,351.87Z" transform="translate(-62.1 -120.21)"/><path class="cls-8" d="M1002.62,350.92a3.22,3.22,0,1,1,3.22,3.22A3.18,3.18,0,0,1,1002.62,350.92Zm1.61-8.45-.6-22.18a2.19,2.19,0,0,1,4.38,0l-.65,22.18a1.56,1.56,0,0,1-3.12,0Z" transform="translate(-62.1 -120.21)"/><path class="cls-8" d="M990.95,173.65a4.73,4.73,0,1,1-4.73,4.73A4.66,4.66,0,0,1,990.95,173.65Z" transform="translate(-62.1 -120.21)"/><path class="cls-8" d="M998.18,188.25h7.74c7.35,0,12,4.23,12,12.3a11.16,11.16,0,0,1-4.07,9.19,3.46,3.46,0,0,1-2.28.95,2.9,2.9,0,0,1-3-3,3,3,0,0,1,1-2.23,6.49,6.49,0,0,0,2.34-5c0-4.4-3-5.62-6.57-5.62h-6.63c-3.62,0-6.57,1.39-6.57,5.79a6.49,6.49,0,0,0,2.34,5,2.69,2.69,0,0,1,1,2.17,3,3,0,0,1-3,3,3.45,3.45,0,0,1-2.28-.94,11.16,11.16,0,0,1-4.07-9.19C986.21,192.65,990.84,188.25,998.18,188.25Z" transform="translate(-62.1 -120.21)"/><path class="cls-8" d="M998.07,214.32h7.8c7.41,0,12,3.84,12,12s-4.57,12-12,12h-7.8c-7.41,0-11.86-3.79-11.86-12S990.78,214.32,998.07,214.32Zm.39,17.26h7.13c4.34,0,6.35-1.33,6.35-5.29s-2-5.29-6.35-5.29h-7.13c-4.29,0-6.35,1.34-6.35,5.29S994.18,231.58,998.46,231.58Z" transform="translate(-62.1 -120.21)"/><path class="cls-8" d="M989.55,244.51h25.39a3,3,0,0,1,3,3,3.1,3.1,0,0,1-2.73,3l-1,.17a10.86,10.86,0,0,1,3.67,8.24c0,4-1.67,6.51-3.9,8,1.67,1.78,4,4.57,4,8.63,0,6.57-4.73,9.19-10.8,9.19H989.55a3.34,3.34,0,1,1,0-6.68h16.09c4.29,0,5.79-1.84,5.79-4.85a8.61,8.61,0,0,0-2.23-5.23,16,16,0,0,1-3,.22H989.55a3.34,3.34,0,1,1,0-6.68h16.2c4.12,0,5.68-1.62,5.68-4.68a8.36,8.36,0,0,0-2.51-5.51H989.55a3.34,3.34,0,0,1,0-6.68Z" transform="translate(-62.1 -120.21)"/><path class="cls-9" d="M319.1,248.09v.61a129.12,129.12,0,0,1-4.19,32.65c-11.14,57.72-62.52,93.28-104.68,113.16-2,.93-3.87,1.82-5.76,2.66-2.18,1-4.32,1.92-6.4,2.79l-2.24,1a223.4,223.4,0,0,1-42.45,14.41c-1,.26-1.63.38-1.63.38l0-.06a187.78,187.78,0,0,1-27.37,4.13,7.63,7.63,0,0,1-5.67-13.28,325.08,325.08,0,0,0,27.95-28.27,6.1,6.1,0,0,0-2.46-9.67c-2.37-.93-4.74-2-7-3a1.9,1.9,0,0,0-.26-.13s-.06,0-.06,0a128.46,128.46,0,0,1-50.77-41.94q-3.17-4.42-6-9.12A129.08,129.08,0,0,1,67.83,286.7,128,128,0,0,1,85.21,175.42a129.26,129.26,0,0,1,73.6-51.19,125,125,0,0,1,26.73-3.94,131.77,131.77,0,0,1,17.13.48A128.39,128.39,0,0,1,319,243.16C319.06,244.79,319.1,246.43,319.1,248.09Z" transform="translate(-62.1 -120.21)"/><path class="cls-10" d="M319.1,248.09v.61a129.12,129.12,0,0,1-4.19,32.65c-11.14,57.72-62.52,93.28-104.68,113.16-2,.93-3.87,1.82-5.76,2.66-2.18,1-4.32,1.92-6.4,2.79L130.8,332.7s118.67-49.11,118.67-49.91,10.15-58.58,10.15-58.58l-.93-41.33.1.1L319,243.16C319.06,244.79,319.1,246.43,319.1,248.09Z" transform="translate(-62.1 -120.21)"/><polygon class="cls-10" points="97.69 82.9 87.69 110.16 109.74 116.56 132.9 139.91 141.86 163.78 172.48 145.81 103.05 76.38 97.69 82.9"/><path class="cls-11" d="M266.4,264.8a46.58,46.58,0,0,0-3.11-5.67,47.88,47.88,0,0,0-6.88-8.58,46.92,46.92,0,0,0,3.91-4.42,13.19,13.19,0,0,0,1-1.31,1.84,1.84,0,0,1,.22-.26,48.76,48.76,0,0,0,4.83-8.29A48,48,0,0,0,271,215.5c0-1.47,0-2.95-.16-4.42a48.78,48.78,0,0,0-4.42-16.39A47.7,47.7,0,0,0,258.78,183l-.1-.1a49.36,49.36,0,0,0-37-16.71h-80a15.14,15.14,0,0,0-15.17,15.17V288.52l47-43.41-2.37-2.37a1.61,1.61,0,0,1,2.27-2.27l6.21,6.21,11.08,11.11a1.55,1.55,0,0,1,0,2.24,1.62,1.62,0,0,1-2.24,0l-3.14-3.14-56.15,60.82a10.31,10.31,0,0,0,2.37,15.81,10,10,0,0,0,5.22,1.44h84.86a49.31,49.31,0,0,0,44.72-28.52A48.64,48.64,0,0,0,271,285.64c0-1.5,0-3-.16-4.42A48.45,48.45,0,0,0,266.4,264.8Zm-16-39,1,1a5.27,5.27,0,0,1,0,7.39l-25,25-.26.29-12.29,12.32a5.35,5.35,0,0,1-7.46,0l-1-1.09a5.24,5.24,0,0,1,0-7.36L217.74,251l.26-.26h0l25-25A5.2,5.2,0,0,1,250.43,225.78Zm-83.55-1a5.31,5.31,0,0,1-7.43,0l-1.06-1a5.29,5.29,0,0,1,0-7.46L170.72,204l.26-.29,25-25a5.2,5.2,0,0,1,7.43,0l1,1a5.2,5.2,0,0,1,0,7.43l-25,25-.29.29Zm4.9,3.23,11.46-11.46.29-.29,24.11-24.14,13.32,13.28,17.45,17.45L214.26,247l-.29.29-11.46,11.46Z" transform="translate(-62.1 -120.21)"/><polygon class="cls-12" points="155.92 130.56 155.64 130.83 155.9 130.54 155.92 130.56"/></svg>